<svg xmlns="http://www.w3.org/2000/svg" version="1.1" xmlns:xlink="http://www.w3.org/1999/xlink" xmlns:svgjs="http://svgjs.com/svgjs" width="512" height="512" x="0" y="0" viewBox="0 0 512 512" style="enable-background:new 0 0 512 512" xml:space="preserve" class=""><g><path d="M361 504.5H98.5c-8.214 0-15-6.75-15-15V127.499l22.76-53.104m5.91-13.791L134.93 7.5H261l10 59.999h135l22.5 60V489.5c0 8.231-6.769 15-15 15H376" style="fill-rule:evenodd;clip-rule:evenodd;stroke-width:15;stroke-miterlimit:22.9256;" fill-rule="evenodd" clip-rule="evenodd" fill="none" stroke="#7ab629" stroke-width="15" stroke-miterlimit="22.9256" data-original="#000000"></path><path d="M228.086 67.499V37.5h-73.375l-31.822 74.25h65.865zM406 67.499v-30m14.999.001v-30H301v30h119.999zM316 37.5v30M83.5 157.498h344.999M371.101 97.499h15m-45 0h15M268.502 286.086c-6.705-6.262-13.803-12.568-20.846-19.092-28.834 26.712-58.588 49.768-58.588 81.07 0 32.374 26.215 58.587 58.588 58.587 32.374 0 58.588-26.213 58.588-58.587 0-9.483-2.731-18.208-7.34-26.508" style="fill-rule:evenodd;clip-rule:evenodd;stroke-width:15;stroke-miterlimit:22.9256;" fill-rule="evenodd" clip-rule="evenodd" fill="none" stroke="#7ab629" stroke-width="15" stroke-miterlimit="22.9256" data-original="#000000"></path><path d="M295.044 255.348c-13.725 12.715-27.887 23.689-27.887 38.588 0 15.41 12.478 27.886 27.887 27.886s27.887-12.477 27.887-27.886c0-14.9-14.163-25.874-27.887-38.588z" style="fill-rule:evenodd;clip-rule:evenodd;stroke-width:15;stroke-miterlimit:22.9256;" fill-rule="evenodd" clip-rule="evenodd" fill="none" stroke="#7ab629" stroke-width="15" stroke-miterlimit="22.9256" data-original="#000000"></path><path d="M154.91 205.092h202.18l22.499 22.5v206.814l-22.499 22.499H154.91l-22.5-22.499V227.592z" style="fill-rule:evenodd;clip-rule:evenodd;stroke-width:15;stroke-miterlimit:22.9256;" fill-rule="evenodd" clip-rule="evenodd" fill="none" stroke="#7ab629" stroke-width="15" stroke-miterlimit="22.9256" data-original="#000000"></path></g></svg>