<svg xmlns="http://www.w3.org/2000/svg" version="1.1" xmlns:xlink="http://www.w3.org/1999/xlink" xmlns:svgjs="http://svgjs.com/svgjs" width="512" height="512" x="0" y="0" viewBox="0 0 682.667 682.667" style="enable-background:new 0 0 512 512" xml:space="preserve" class=""><g><defs><clipPath id="a" clipPathUnits="userSpaceOnUse"><path d="M0 512h512V0H0Z" fill="#7ab629" data-original="#000000"></path></clipPath></defs><path d="M0 0v-13.616" style="stroke-width:15;stroke-linecap:round;stroke-linejoin:round;stroke-miterlimit:10;stroke-dasharray:none;stroke-opacity:1" transform="matrix(1.33333 0 0 -1.33333 246.858 297.89)" fill="none" stroke="#7ab629" stroke-width="15" stroke-linecap="round" stroke-linejoin="round" stroke-miterlimit="10" stroke-dasharray="none" stroke-opacity="" data-original="#000000" class=""></path><path d="M0 0v-13.616" style="stroke-width:15;stroke-linecap:round;stroke-linejoin:round;stroke-miterlimit:10;stroke-dasharray:none;stroke-opacity:1" transform="matrix(1.33333 0 0 -1.33333 435.809 297.89)" fill="none" stroke="#7ab629" stroke-width="15" stroke-linecap="round" stroke-linejoin="round" stroke-miterlimit="10" stroke-dasharray="none" stroke-opacity="" data-original="#000000" class=""></path><g clip-path="url(#a)" transform="matrix(1.33333 0 0 -1.33333 0 682.667)"><path d="M0 0c4.542-5.212 11.224-8.51 18.681-8.51 7.457 0 14.138 3.298 18.68 8.51" style="stroke-width:15;stroke-linecap:round;stroke-linejoin:round;stroke-miterlimit:10;stroke-dasharray:none;stroke-opacity:1" transform="translate(237.32 275.372)" fill="none" stroke="#7ab629" stroke-width="15" stroke-linecap="round" stroke-linejoin="round" stroke-miterlimit="10" stroke-dasharray="none" stroke-opacity="" data-original="#000000" class=""></path><path d="M0 0c-13.084 0-23.691-10.607-23.691-23.691V-46.82c0-13.084 10.607-23.691 23.691-23.691h97.075V0Z" style="stroke-width:15;stroke-linecap:round;stroke-linejoin:round;stroke-miterlimit:10;stroke-dasharray:none;stroke-opacity:1" transform="translate(98.542 132.424)" fill="none" stroke="#7ab629" stroke-width="15" stroke-linecap="round" stroke-linejoin="round" stroke-miterlimit="10" stroke-dasharray="none" stroke-opacity="" data-original="#000000" class=""></path><path d="M0 0h-97.075v-70.511H0c13.084 0 23.691 10.607 23.691 23.691v23.129C23.691-10.607 13.084 0 0 0Z" style="stroke-width:15;stroke-linecap:round;stroke-linejoin:round;stroke-miterlimit:10;stroke-dasharray:none;stroke-opacity:1" transform="translate(413.458 132.424)" fill="none" stroke="#7ab629" stroke-width="15" stroke-linecap="round" stroke-linejoin="round" stroke-miterlimit="10" stroke-dasharray="none" stroke-opacity="" data-original="#000000" class=""></path><path d="M316.383 61.913H195.617v70.511h120.766z" style="stroke-width:15;stroke-linecap:round;stroke-linejoin:round;stroke-miterlimit:10;stroke-dasharray:none;stroke-opacity:1" fill="none" stroke="#7ab629" stroke-width="15" stroke-linecap="round" stroke-linejoin="round" stroke-miterlimit="10" stroke-dasharray="none" stroke-opacity="" data-original="#000000" class=""></path><path d="M0 0c15.41 29.318 38.234 54.149 65.967 71.992-2.942 5.535-6.568 10.589-10.78 14.802-20.441 20.441-53.583 20.441-74.025 0-20.441-20.441-20.441-53.583 0-74.024C-13.619 7.552-7.121 3.224 0 0Z" style="stroke-width:15;stroke-linecap:round;stroke-linejoin:round;stroke-miterlimit:10;stroke-dasharray:none;stroke-opacity:1" transform="translate(87.24 402.158)" fill="none" stroke="#7ab629" stroke-width="15" stroke-linecap="round" stroke-linejoin="round" stroke-miterlimit="10" stroke-dasharray="none" stroke-opacity="" data-original="#000000" class=""></path><path d="M0 0a52.07 52.07 0 0 1-23.681-13.599c-4.213-4.213-7.839-9.266-10.78-14.801 27.732-17.843 50.557-42.674 65.967-71.993 7.121 3.224 13.619 7.552 18.838 12.77 20.441 20.441 20.441 53.583 0 74.024A52.117 52.117 0 0 1 29.972-.984" style="stroke-width:15;stroke-linecap:round;stroke-linejoin:round;stroke-miterlimit:10;stroke-dasharray:none;stroke-opacity:1" transform="translate(393.254 502.55)" fill="none" stroke="#7ab629" stroke-width="15" stroke-linecap="round" stroke-linejoin="round" stroke-miterlimit="10" stroke-dasharray="none" stroke-opacity="" data-original="#000000" class=""></path><path d="M0 0c1.176 0 2.336-.062 3.484-.162a155.279 155.279 0 0 0 14.821 47.796c3.306 6.631 11.852 8.637 17.789 4.204a50.062 50.062 0 0 1 30.063-9.972c14.806 0 28.113 6.394 37.322 16.57 4.66 5.149 12.882 5.149 17.543 0 9.209-10.176 22.517-16.57 37.322-16.57 14.804 0 28.112 6.394 37.321 16.57 4.661 5.149 12.884 5.149 17.544 0 9.209-10.176 22.516-16.57 37.322-16.57a50.065 50.065 0 0 1 30.063 9.973c5.981 4.466 14.525 2.356 17.849-4.326a155.276 155.276 0 0 0 14.76-47.675c1.149.1 2.309.162 3.484.162 13.211 0 24.905-6.475 32.101-16.416-2.992 102.464-87.268 184.898-190.444 184.898-103.176 0-187.452-82.435-190.445-184.899C-24.904-6.475-13.211 0 0 0Z" style="stroke-width:15;stroke-linecap:round;stroke-linejoin:round;stroke-miterlimit:10;stroke-dasharray:none;stroke-opacity:1" transform="translate(97.656 335.854)" fill="none" stroke="#7ab629" stroke-width="15" stroke-linecap="round" stroke-linejoin="round" stroke-miterlimit="10" stroke-dasharray="none" stroke-opacity="" data-original="#000000" class=""></path><path d="M0 0c0 7.43.531 14.735 1.533 21.889-1.148.1-2.308.162-3.484.162-21.876 0-39.611-17.735-39.611-39.612 0-21.877 17.735-39.611 39.611-39.611 4.418 0 8.661.734 12.629 2.068C3.795-38.378 0-19.866 0 0Z" style="stroke-width:15;stroke-linecap:round;stroke-linejoin:round;stroke-miterlimit:10;stroke-dasharray:none;stroke-opacity:1" transform="translate(99.607 313.804)" fill="none" stroke="#7ab629" stroke-width="15" stroke-linecap="round" stroke-linejoin="round" stroke-miterlimit="10" stroke-dasharray="none" stroke-opacity="" data-original="#000000" class=""></path><path d="M0 0c-1.176 0-2.336-.062-3.484-.162a157.716 157.716 0 0 0 1.533-21.891c0-19.929-3.735-38.448-10.531-55.151A39.542 39.542 0 0 1 0-79.223c21.877 0 39.611 17.735 39.611 39.612C39.611-17.734 21.877 0 0 0Z" style="stroke-width:15;stroke-linecap:round;stroke-linejoin:round;stroke-miterlimit:10;stroke-dasharray:none;stroke-opacity:1" transform="translate(414.344 335.854)" fill="none" stroke="#7ab629" stroke-width="15" stroke-linecap="round" stroke-linejoin="round" stroke-miterlimit="10" stroke-dasharray="none" stroke-opacity="" data-original="#000000" class=""></path><path d="M0 0c-23.723-13.326-51.728-20.832-81.759-21.093-25.363-.22-49.442 4.884-70.805 14.383a45.97 45.97 0 0 0 5.369-21.609c0-15.334-12.432-27.765-27.766-27.765H37.135C25.148-26.639 8.262-7.952 0 0Z" style="stroke-width:15;stroke-linecap:round;stroke-linejoin:round;stroke-miterlimit:10;stroke-dasharray:none;stroke-opacity:1" transform="translate(339.144 188.509)" fill="none" stroke="#7ab629" stroke-width="15" stroke-linecap="round" stroke-linejoin="round" stroke-miterlimit="10" stroke-dasharray="none" stroke-opacity="" data-original="#000000" class=""></path><path d="M0 0c-3.324 6.683-11.868 8.792-17.85 4.326a50.061 50.061 0 0 0-30.062-9.972c-14.807 0-28.113 6.393-37.322 16.569-4.661 5.149-12.883 5.149-17.544 0C-111.987.747-125.295-5.646-140.1-5.646c-14.804 0-28.112 6.393-37.321 16.569-4.661 5.149-12.884 5.149-17.544 0C-204.174.747-217.48-5.646-232.286-5.646a50.07 50.07 0 0 0-30.064 9.971c-5.936 4.434-14.482 2.427-17.789-4.204-10.465-20.982-16.353-44.644-16.353-69.684 0-44.089 18.656-81.522 48.406-107.5 16.742-.799 31.143-10.517 38.566-24.505 21.364-9.499 45.443-14.604 70.806-14.383 85.735.744 155.007 60.475 155.007 146.386C16.293-44.573 10.427-20.953 0 0Z" style="stroke-width:15;stroke-linecap:round;stroke-linejoin:round;stroke-miterlimit:10;stroke-dasharray:none;stroke-opacity:1" transform="translate(396.1 383.367)" fill="none" stroke="#7ab629" stroke-width="15" stroke-linecap="round" stroke-linejoin="round" stroke-miterlimit="10" stroke-dasharray="none" stroke-opacity="" data-original="#000000" class=""></path><path d="M0 0v0c-25.499 0-46.171-20.672-46.171-46.171 0-15.334 12.432-27.765 27.766-27.765h36.81c15.334 0 27.766 12.431 27.766 27.765C46.171-20.672 25.499 0 0 0Z" style="stroke-width:15;stroke-linecap:round;stroke-linejoin:round;stroke-miterlimit:10;stroke-dasharray:none;stroke-opacity:1" transform="translate(145.778 206.36)" fill="none" stroke="#7ab629" stroke-width="15" stroke-linecap="round" stroke-linejoin="round" stroke-miterlimit="10" stroke-dasharray="none" stroke-opacity="" data-original="#000000" class=""></path><path d="M0 0h367.373v65.646h-70.787c-4.156-6.833-11.672-11.396-20.255-11.396H-38.585c-8.583 0-16.099 4.563-20.255 11.396h-70.787V0H-30" style="stroke-width:15;stroke-linecap:round;stroke-linejoin:round;stroke-miterlimit:10;stroke-dasharray:none;stroke-opacity:1" transform="translate(137.127 7.663)" fill="none" stroke="#7ab629" stroke-width="15" stroke-linecap="round" stroke-linejoin="round" stroke-miterlimit="10" stroke-dasharray="none" stroke-opacity="" data-original="#000000" class=""></path></g></g></svg>