<svg xmlns="http://www.w3.org/2000/svg" version="1.1" xmlns:xlink="http://www.w3.org/1999/xlink" xmlns:svgjs="http://svgjs.com/svgjs" width="512" height="512" x="0" y="0" viewBox="0 0 512 512" style="enable-background:new 0 0 512 512" xml:space="preserve" class=""><g><path d="m461.657 82.343-64-64A8 8 0 0 0 392 16H232a8 8 0 0 0-5.657 2.343L168 76.687 155.313 64l2.344-2.343a8 8 0 0 0 0-11.314l-32-32a8 8 0 0 0-11.314 0l-56 56a8 8 0 0 0 0 11.314l32 32a8 8 0 0 0 11.314 0l2.343-2.344L116.687 128l-26.344 26.343-40 40A8 8 0 0 0 48 200v224a8 8 0 0 0 2.343 5.657l64 64A8 8 0 0 0 120 496h272a8 8 0 0 0 5.657-2.343l64-64A8 8 0 0 0 464 424V88a8 8 0 0 0-2.343-5.657ZM75.313 80 120 35.313 140.687 56 96 100.687Zm40 24L144 75.313 156.687 88l-18.344 18.343L128 116.687Zm255.03 261.657L412.686 408 376 444.686l-42.343-42.343A8 8 0 0 0 328 400H184a8 8 0 0 0-5.657 2.343L136 444.686 99.314 408l42.343-42.343A8 8 0 0 0 144 360V200a8 8 0 0 0-2.343-5.657L107.314 160 144 123.314l34.343 34.343A8 8 0 0 0 184 160h144a8 8 0 0 0 5.657-2.343L376 115.314 412.686 152l-42.343 42.343A8 8 0 0 0 368 200v160a8 8 0 0 0 2.343 5.657ZM448 420.687 388.687 480H123.313L64 420.687V203.313l32-32 32 32v153.373l-45.657 45.657a8 8 0 0 0 0 11.314l48 48a8 8 0 0 0 11.314 0L187.314 416h137.372l45.657 45.657a8 8 0 0 0 11.314 0l48-48a8 8 0 0 0 0-11.314L384 356.686V203.314l45.657-45.657a8 8 0 0 0 0-11.314l-48-48a8 8 0 0 0-11.314 0L324.686 144H187.314l-32-32 80-80h153.373L448 91.313Z" fill="#7ab629" data-original="#000000" class=""></path><path d="M360 48H248a24 24 0 0 0 0 48h112a24 24 0 0 0 0-48Zm0 32H248a8 8 0 0 1 0-16h112a8 8 0 0 1 0 16ZM264 192a8 8 0 0 0-6.583 3.453C251.541 203.961 200 279.516 200 312a64 64 0 0 0 128 0c0-32.484-51.541-108.039-57.417-116.547A8 8 0 0 0 264 192Zm0 168a48.055 48.055 0 0 1-48-48c0-20.443 30.305-70.767 48-97.666 17.695 26.9 48 77.223 48 97.666a48.055 48.055 0 0 1-48 48ZM192 112h128v16H192zM192 432h128v16H192zM400 208h16v144h-16zM96 208h16v144H96z" fill="#7ab629" data-original="#000000" class=""></path></g></svg>