<svg xmlns="http://www.w3.org/2000/svg" version="1.1" xmlns:xlink="http://www.w3.org/1999/xlink" xmlns:svgjs="http://svgjs.com/svgjs" width="512" height="512" x="0" y="0" viewBox="0 0 64 64" style="enable-background:new 0 0 512 512" xml:space="preserve" class=""><g><path d="M53 13h-1.847l.837-5.858a1 1 0 0 0-1.771-.767l-8 10A1 1 0 0 0 43 18h2.719l-1.689 6.757a1 1 0 0 0 1.779.831l8-11A1 1 0 0 0 53 13Zm-5.782 7.25.752-3.009A1 1 0 0 0 47 16h-1.919l4.411-5.513-.482 3.372A1 1 0 0 0 50 15h1.036Z" fill="#7ab629" data-original="#000000" class=""></path><path d="M48 1a15.026 15.026 0 0 0-14.7 12H17.188A6 6 0 0 0 12 10H8a1 1 0 0 0-1 1v1H4a1 1 0 0 0-1 1H1v2h2v2H1v2h2a1 1 0 0 0 1 1h3v1a1 1 0 0 0 1 1h4a6 6 0 0 0 5.188-3H33.3A15 15 0 1 0 48 1ZM5 18v-4h2v4Zm7 2H9v-8h3a4 4 0 0 1 0 8Zm5.91-3a5.6 5.6 0 0 0 0-2h15.141c-.022.332-.051.662-.051 1s.029.668.051 1ZM48 29a13 13 0 1 1 13-13 13.015 13.015 0 0 1-13 13Z" fill="#7ab629" data-original="#000000" class=""></path><path d="m47.307 37-7.592-5.061A17.459 17.459 0 0 0 30 29H17.63A15.983 15.983 0 0 0 7.1 32.955 12.02 12.02 0 0 0 3 41.594a7.764 7.764 0 0 0-2 5.233V55a3 3 0 0 0 3 3h2.09a5.993 5.993 0 0 0 11.82 0h25.18a5.993 5.993 0 0 0 11.82 0H59a4 4 0 0 0 4-4v-3.6a10.959 10.959 0 0 0-2.3-6.7A17.235 17.235 0 0 0 47.307 37Zm12.523 9a9.022 9.022 0 0 1 .832 2H57a1 1 0 0 1 0-2ZM3.5 48a1.5 1.5 0 0 1 0 3H3v-3ZM12 61a4 4 0 1 1 4-4 4 4 0 0 1-4 4Zm37 0a4 4 0 1 1 4-4 4 4 0 0 1-4 4Zm12-7a2 2 0 0 1-2 2h-4.09a5.993 5.993 0 0 0-11.82 0H17.91a5.993 5.993 0 0 0-11.82 0H4a1 1 0 0 1-1-1v-2h.5a3.5 3.5 0 0 0 0-7h-.435a5.767 5.767 0 0 1 1.642-3.292A1 1 0 0 0 5 42a10.02 10.02 0 0 1 3.421-7.54A13.983 13.983 0 0 1 17.63 31H30a15.456 15.456 0 0 1 8.6 2.606l7.84 5.227A1 1 0 0 0 47 39a15.231 15.231 0 0 1 11.311 5H57a3 3 0 0 0 0 6h3.983c.006.134.017.267.017.4Z" fill="#7ab629" data-original="#000000" class=""></path><path d="m44.64 39.585-7.573-4.819A11.272 11.272 0 0 0 31.006 33h-13.89a10.027 10.027 0 0 0-4.455 1.051 4.813 4.813 0 0 0 .462 8.812A33.426 33.426 0 0 0 24.9 45h18.16a2.937 2.937 0 0 0 1.577-5.415ZM12 38.356a2.8 2.8 0 0 1 1.555-2.516 8.022 8.022 0 0 1 3.561-.84H23v7.936a31.407 31.407 0 0 1-9.176-1.946A2.825 2.825 0 0 1 12 38.356ZM43.063 43H25v-8h6a9.27 9.27 0 0 1 4.988 1.454l7.573 4.819a.937.937 0 0 1-.5 1.727ZM25 47h4v2h-4z" fill="#7ab629" data-original="#000000" class=""></path></g></svg>