<svg xmlns="http://www.w3.org/2000/svg" version="1.1" xmlns:xlink="http://www.w3.org/1999/xlink" xmlns:svgjs="http://svgjs.com/svgjs" width="512" height="512" x="0" y="0" viewBox="0 0 512 512" style="enable-background:new 0 0 512 512" xml:space="preserve" class=""><g><path d="M441.158 504.5V171.766M441.158 142.766v-78.33c0-8.079-6.55-14.629-14.629-14.629h-208.54c-8.079 0-14.629 6.55-14.629 14.629V185.45" style="stroke-width:15;stroke-linecap:round;stroke-linejoin:round;stroke-miterlimit:10;" fill="none" stroke="#7ab629" stroke-width="15" stroke-linecap="round" stroke-linejoin="round" stroke-miterlimit="10" data-original="#000000" class=""></path><path d="M387.725 7.5H256.793a22.024 22.024 0 0 0-20.635 14.328l-10.434 27.979h193.069L408.36 21.828A22.024 22.024 0 0 0 387.725 7.5zM52.163 303.467H27.122c-5.799 0-10.499-4.701-10.499-10.499v-16.056c0-5.799 4.701-10.499 10.499-10.499h32.679M293.34 303.467h25.888c5.799 0 10.499-4.701 10.499-10.499v-16.056c0-5.799-4.701-10.499-10.499-10.499H284.97M67.488 504.5h0c-13.059 0-23.645-10.586-23.645-23.645v-39.954h47.29v39.954c0 13.059-10.586 23.645-23.645 23.645zM278.861 504.5h0c-13.059 0-23.645-10.586-23.645-23.645v-39.954h47.29v39.954c0 13.059-10.586 23.645-23.645 23.645z" style="stroke-width:15;stroke-linecap:round;stroke-linejoin:round;stroke-miterlimit:10;" fill="none" stroke="#7ab629" stroke-width="15" stroke-linecap="round" stroke-linejoin="round" stroke-miterlimit="10" data-original="#000000" class=""></path><circle cx="63.009" cy="392.675" r="17.303" style="stroke-width:15;stroke-linecap:round;stroke-linejoin:round;stroke-miterlimit:10;" fill="none" stroke="#7ab629" stroke-width="15" stroke-linecap="round" stroke-linejoin="round" stroke-miterlimit="10" data-original="#000000" class=""></circle><circle cx="283.34" cy="392.675" r="17.303" style="stroke-width:15;stroke-linecap:round;stroke-linejoin:round;stroke-miterlimit:10;" fill="none" stroke="#7ab629" stroke-width="15" stroke-linecap="round" stroke-linejoin="round" stroke-miterlimit="10" data-original="#000000" class=""></circle><path d="M125.49 379.269h95.368M125.49 406.081h95.368M320.463 344.449H25.886c-10.155 0-18.386 8.232-18.386 18.386v59.679c0 10.155 8.232 18.386 18.386 18.386h294.576c10.154 0 18.386-8.232 18.386-18.386v-59.679c.001-10.154-8.231-18.386-18.385-18.386zM146.541 318.562h122.545l-23.492-90.977a17.762 17.762 0 0 0-17.2-13.323H117.955a17.763 17.763 0 0 0-17.2 13.323l-23.491 90.976h40.403" style="stroke-width:15;stroke-linecap:round;stroke-linejoin:round;stroke-miterlimit:10;" fill="none" stroke="#7ab629" stroke-width="15" stroke-linecap="round" stroke-linejoin="round" stroke-miterlimit="10" data-original="#000000" class=""></path><path d="M270.659 221.114c-4.977-19.273-22.361-32.738-42.265-32.738H117.956c-19.905 0-37.289 13.465-42.265 32.738L43.843 344.449h258.663l-31.847-123.335zM394.611 157.266H249.907a6.113 6.113 0 0 1-6.113-6.113v-66.6a6.113 6.113 0 0 1 6.113-6.113H394.61a6.113 6.113 0 0 1 6.113 6.113v66.6a6.112 6.112 0 0 1-6.112 6.113zM456.461 303.467h-15.303v-84.99h15.303a9.467 9.467 0 0 1 9.467 9.467v66.055c.001 5.229-4.238 9.468-9.467 9.468zM418.935 411.94l-10.674 20.761a3.687 3.687 0 0 1-4.965 1.593l-37.637-19.35a3.687 3.687 0 0 1-1.593-4.965l10.674-20.761a3.687 3.687 0 0 1 4.965-1.593l37.637 19.35a3.687 3.687 0 0 1 1.593 4.965zM369.403 399.6l-29.375-15.103" style="stroke-width:15;stroke-linecap:round;stroke-linejoin:round;stroke-miterlimit:10;" fill="none" stroke="#7ab629" stroke-width="15" stroke-linecap="round" stroke-linejoin="round" stroke-miterlimit="10" data-original="#000000" class=""></path><path d="M465.929 260.972h10.907c14.41 0 25.307 13.043 22.745 27.223l-15.444 85.463a54.171 54.171 0 0 0 5.938 35.916l11.524 20.773a23.115 23.115 0 0 1 2.902 11.212v0c0 18.491-20.635 29.495-35.99 19.193l-55.52-37.249M7.5 504.5h497M295.709 200.875h53.101M276.562 117.853h91.394" style="stroke-width:15;stroke-linecap:round;stroke-linejoin:round;stroke-miterlimit:10;" fill="none" stroke="#7ab629" stroke-width="15" stroke-linecap="round" stroke-linejoin="round" stroke-miterlimit="10" data-original="#000000" class=""></path></g></svg>