<svg xmlns="http://www.w3.org/2000/svg" version="1.1" xmlns:xlink="http://www.w3.org/1999/xlink" xmlns:svgjs="http://svgjs.com/svgjs" width="512" height="512" x="0" y="0" viewBox="0 0 512 512" style="enable-background:new 0 0 512 512" xml:space="preserve" class=""><g><path d="M295.648 366.42h20.93c11.45 0 20.76 9.31 20.76 20.76 0 34.2 27.82 62.02 62.02 62.02s62.02-27.82 62.02-62.02V233.92h-35.57v153.26c0 14.58-11.87 26.44-26.45 26.44s-26.45-11.86-26.45-26.44c0-31.06-25.26-56.33-56.33-56.33h-20.93M421.173 97.578a118.688 118.688 0 0 0-22.24-52.57c-6.02-8.02-5.12-19.28 1.95-26.39.1-.1.19-.2.29-.3 8.76-8.82 23.31-7.78 30.76 2.18a159.698 159.698 0 0 1 30.64 76.36" style="stroke-width:15;stroke-linecap:round;stroke-linejoin:round;stroke-miterlimit:10;" fill="none" stroke="#7ab629" stroke-width="15" stroke-linecap="round" stroke-linejoin="round" stroke-miterlimit="10" data-original="#000000" class=""></path><path d="M461.378 233.92h7.11c19.28 0 34.91-15.62 34.91-34.9v-13.09c0-8.13-2.79-15.6-7.45-21.53-7.73-9.85-11.84-22.06-11.84-34.58v-6.54c0-13.03-9.24-23.9-21.53-26.42-1.76-.36-3.58-.55-5.45-.55h-27.76c-2.86 0-5.61.44-8.19 1.27-10.9 3.46-18.79 13.66-18.79 25.7v6.54c0 12.52-4.11 24.73-11.84 34.58a34.712 34.712 0 0 0-7.44 21.53v13.09c0 19.28 15.62 34.9 34.9 34.9h7.8M100.072 125.105v11.205M145.171 136.242c3.926 4.505 9.702 7.356 16.147 7.356 6.445 0 12.221-2.851 16.148-7.356M211.745 135.998c0-7.171 5.813-12.984 12.984-12.984s12.984 5.813 12.984 12.984" style="stroke-width:15;stroke-linecap:round;stroke-linejoin:round;stroke-miterlimit:10;" fill="none" stroke="#7ab629" stroke-width="15" stroke-linecap="round" stroke-linejoin="round" stroke-miterlimit="10" data-original="#000000" class=""></path><path d="M24.028 97.578V63.24c0-30.79 24.95-55.74 55.74-55.74h178.25c30.79 0 55.74 24.95 55.74 55.74v140.85c0 13.72-4.96 26.28-13.18 35.99-3.14 3.71-4.93 8.38-4.93 13.25v195.76M42.138 449.09V253.33c0-4.87-1.79-9.54-4.93-13.25-8.22-9.71-13.18-22.27-13.18-35.99v-70.784" style="stroke-width:15;stroke-linecap:round;stroke-linejoin:round;stroke-miterlimit:10;" fill="none" stroke="#7ab629" stroke-width="15" stroke-linecap="round" stroke-linejoin="round" stroke-miterlimit="10" data-original="#000000" class=""></path><path d="M217.246 504.5H28.94c-11.232 0-20.337-9.105-20.337-20.337v-14.74c0-11.232 9.105-20.337 20.337-20.337h279.906c11.232 0 20.337 9.105 20.337 20.337v14.74c0 11.232-9.105 20.337-20.337 20.337h-52.848M248.948 219.984H88.838c-16.159 0-29.259-13.099-29.259-29.259V75.885c0-16.159 13.099-29.259 29.259-29.259h160.11c16.159 0 29.259 13.099 29.259 29.259v114.841c-.001 16.159-13.1 29.258-29.259 29.258zM205.075 304.193c12.901 26.376-5.337 57.846-34.682 58.838a43.967 43.967 0 0 1-3 0c-29.345-.991-47.583-32.462-34.682-58.838l20.54-41.992c6.367-13.016 24.918-13.016 31.285 0l20.539 41.992zM207.653 418.467h-77.52c-7.625 0-13.806-6.181-13.806-13.806v0c0-7.625 6.181-13.806 13.806-13.806h77.52c7.625 0 13.806 6.181 13.806 13.806v0c-.001 7.625-6.182 13.806-13.806 13.806z" style="stroke-width:15;stroke-linecap:round;stroke-linejoin:round;stroke-miterlimit:10;" fill="none" stroke="#7ab629" stroke-width="15" stroke-linecap="round" stroke-linejoin="round" stroke-miterlimit="10" data-original="#000000" class=""></path></g></svg>