<svg xmlns="http://www.w3.org/2000/svg" version="1.1" xmlns:xlink="http://www.w3.org/1999/xlink" xmlns:svgjs="http://svgjs.com/svgjs" width="512" height="512" x="0" y="0" viewBox="0 0 512 512" style="enable-background:new 0 0 512 512" xml:space="preserve" class=""><g><path d="M417.251 65.802 504.5 7.5M7.5 244.257l45.983-33.875 53.338 62.858 62.196-41.56M465.274 7.519 504.5 7.5l-13.762 36.939M417.05 124.721l25.999 26a17.95 17.95 0 0 1 5.257 12.692v36.617M225.062 65.5H417.05v404.592H169.017V195.334M368 504.5H137.811v-34.408h310.445V504.5h-48.372" style="stroke-width:15;stroke-linecap:round;stroke-linejoin:round;stroke-miterlimit:10;" fill="none" stroke="#7ab629" stroke-width="15" stroke-linecap="round" stroke-linejoin="round" stroke-miterlimit="10" data-original="#000000" class=""></path><path d="M453.043 290.657H417.05v-59.74c0-25.747 29.692-40.151 49.912-24.212h0a22.486 22.486 0 0 1 8.566 17.659v43.808c-.001 12.418-10.067 22.485-22.485 22.485zM446.289 237.093V261.8" style="stroke-width:15;stroke-linecap:round;stroke-linejoin:round;stroke-miterlimit:10;" fill="none" stroke="#7ab629" stroke-width="15" stroke-linecap="round" stroke-linejoin="round" stroke-miterlimit="10" data-original="#000000" class=""></path><path d="M475.527 225.171V405.8c0 8.151-6.607 14.758-14.758 14.758h0c-8.15 0-14.758-6.608-14.758-14.758V293.657M236.677 290.967h112.712v179.125H236.677zM233.215 98.976h150.782v106.59H202.07v-29.233" style="stroke-width:15;stroke-linecap:round;stroke-linejoin:round;stroke-miterlimit:10;" fill="none" stroke="#7ab629" stroke-width="15" stroke-linecap="round" stroke-linejoin="round" stroke-miterlimit="10" data-original="#000000" class=""></path><path d="M315.323 393.462c0 12.311-9.98 22.291-22.29 22.291-12.31 0-22.29-9.98-22.29-22.291s22.29-52.585 22.29-52.585 22.29 40.274 22.29 52.585zM96.33 16.207c12.233-5.591 25.834-8.707 40.163-8.707 53.418 0 96.723 43.304 96.723 96.723s-43.304 96.723-96.723 96.723-96.723-43.305-96.723-96.723c0-27.398 11.391-52.135 29.696-69.733" style="stroke-width:15;stroke-linecap:round;stroke-linejoin:round;stroke-miterlimit:10;" fill="none" stroke="#7ab629" stroke-width="15" stroke-linecap="round" stroke-linejoin="round" stroke-miterlimit="10" data-original="#000000" class=""></path><circle cx="136.493" cy="104.223" r="69.73" style="stroke-width:15;stroke-linecap:round;stroke-linejoin:round;stroke-miterlimit:10;" fill="none" stroke="#7ab629" stroke-width="15" stroke-linecap="round" stroke-linejoin="round" stroke-miterlimit="10" data-original="#000000" class=""></circle><path d="M148.535 77.525s-7.419-7.042-17.419-3.139c-6.375 2.488-10.244 9.743-8.622 16.184 2.252 8.939 13.387 10.875 20.261 13.304 17.179 6.073 10.829 31.2-6.646 31.316-6.82.045-11.938-1.876-15.998-5.206M136.109 135.19v7.944M136.109 65.311v7.279" style="stroke-width:15;stroke-linecap:round;stroke-linejoin:round;stroke-miterlimit:10;" fill="none" stroke="#7ab629" stroke-width="15" stroke-linecap="round" stroke-linejoin="round" stroke-miterlimit="10" data-original="#000000" class=""></path></g></svg>