<svg xmlns="http://www.w3.org/2000/svg" version="1.1" xmlns:xlink="http://www.w3.org/1999/xlink" xmlns:svgjs="http://svgjs.com/svgjs" width="512" height="512" x="0" y="0" viewBox="0 0 64 64" style="enable-background:new 0 0 512 512" xml:space="preserve" class=""><g><path d="M30.721 12h2.558l.772 2.316 1.9-.632-3-9a1 1 0 0 0-1.9 0l-3 9 1.9.632zm1.892-2h-1.226L32 8.162zM40 12a1 1 0 0 1-1-1h-2a3 3 0 1 0 3-3 1 1 0 1 1 1-1h2a3 3 0 1 0-3 3 1 1 0 0 1 0 2zM23.5 14a3.5 3.5 0 0 0 3.5-3.5V10a1 1 0 0 0-1-1h-3v2h1.915A1.5 1.5 0 0 1 22 10.5v-3a1.5 1.5 0 0 1 3 0V8h2v-.5a3.5 3.5 0 0 0-7 0v3a3.5 3.5 0 0 0 3.5 3.5z" fill="#7ab629" data-original="#000000" class=""></path><path d="M63 14a3 3 0 0 0-3-3H47V4a3 3 0 0 0-3-3H19a3 3 0 0 0-3 3v7H4a3 3 0 0 0 0 6h6v11H9a5.006 5.006 0 0 0-5 5v22.051a2.481 2.481 0 0 0-1.829 3.339A2.5 2.5 0 0 0 3.5 63h57a2.5 2.5 0 0 0 .5-4.949V16.816A3 3 0 0 0 63 14zM35 58V17h24v41zM20 36h.85a1.093 1.093 0 0 1 .965.7l1.049 2.333a1.544 1.544 0 0 1-.1 1.456A1.038 1.038 0 0 1 21.9 41H20zm0 7h1.261l1.709 5.564a3.132 3.132 0 0 1-.707 2.466 2.674 2.674 0 0 1-2.053.97H20zm0 12.051V54h.21a4.7 4.7 0 0 0 3.573-1.67 5.133 5.133 0 0 0 1.153-4.143 1.374 1.374 0 0 0-.032-.138l-1.654-5.387a3.134 3.134 0 0 0 1.19-1.087 3.559 3.559 0 0 0 .248-3.362l-1.049-2.333A3.1 3.1 0 0 0 20.85 34H20v-1a5.006 5.006 0 0 0-5-5V17h18v41H21.949A2.5 2.5 0 0 0 20 55.051zM60 13a1 1 0 0 1 0 2H46.816A2.966 2.966 0 0 0 47 14v-1zM18 4a1 1 0 0 1 1-1h25a1 1 0 0 1 1 1v10a1 1 0 0 1-1 1H19a1 1 0 0 1-1-1zM3 14a1 1 0 0 1 1-1h12v1a2.966 2.966 0 0 0 .184 1H4a1 1 0 0 1-1-1zm9 3h1v11h-1zM9 30h6a3 3 0 0 1 3 3v22H6V33a3 3 0 0 1 3-3zM4.5 57h15a.5.5 0 0 1 0 1h-15a.5.5 0 0 1 0-1zm56 4h-57a.5.5 0 0 1 0-1h57a.5.5 0 0 1 0 1z" fill="#7ab629" data-original="#000000" class=""></path><path d="M8 39h8a1 1 0 0 0 1-1v-4a3 3 0 0 0-3-3h-4a3 3 0 0 0-3 3v4a1 1 0 0 0 1 1zm1-5a1 1 0 0 1 1-1h4a1 1 0 0 1 1 1v3H9zM15 41h2v2h-2zM10 41h4v2h-4zM7 41h2v2H7zM57 25H37a1 1 0 0 0-1 1v16a1 1 0 0 0 1 1h20a1 1 0 0 0 1-1V26a1 1 0 0 0-1-1zM46 41h-5v-2.5a2.5 2.5 0 0 1 5 0zm10 0h-8v-2.5a4.5 4.5 0 0 0-9 0V41h-1V27h18z" fill="#7ab629" data-original="#000000" class=""></path></g></svg>