<svg xmlns="http://www.w3.org/2000/svg" version="1.1" xmlns:xlink="http://www.w3.org/1999/xlink" xmlns:svgjs="http://svgjs.com/svgjs" width="512" height="512" x="0" y="0" viewBox="0 0 512 512" style="enable-background:new 0 0 512 512" xml:space="preserve" class=""><g><path d="M264.254 33.032h-16.516c-9.109 0-16.516 7.407-16.516 16.516v16.516c0 9.109 7.407 16.516 16.516 16.516h16.516c9.109 0 16.516-7.407 16.516-16.516V49.548c0-9.108-7.407-16.516-16.516-16.516zm-16.516 33.033V49.548h16.516l.017 16.516h-16.533zM363.351 478.968h16.516v16.516h-16.516zM396.383 478.968h16.516v16.516h-16.516zM429.415 478.968h16.516v16.516h-16.516zM66.06 478.968h16.516v16.516H66.06zM99.093 478.968h16.516v16.516H99.093zM132.125 478.968h16.516v16.516h-16.516z" fill="#7ab629" data-original="#000000" class=""></path><path d="M379.867 123.631v-20.81c51.324 23.37 92.383 63.942 116.389 115.373l14.972-6.986c-26.731-57.27-73.266-101.921-131.353-126.357V74.323c0-22.767-18.523-41.29-41.29-41.29h-24.774v-8.258C313.811 11.115 302.695 0 289.036 0h-66.064c-13.659 0-24.774 11.115-24.774 24.774v42.298C111.488 78.179 37.81 131.857.772 211.217l14.972 6.986C50.065 144.665 118.061 94.745 198.198 83.762v17.069l-13.593 3.237C89.389 126.745 18.543 207.352 8.303 304.69l-.958 9.117h42.199V297.29H25.885c3.27-21.958 9.91-42.884 19.349-62.233L69.165 254.2l10.323-12.907-26.277-21.017c11.347-19.274 25.658-36.6 42.314-51.456l22.008 26.409 12.693-10.579-21.958-26.343c14.542-11.091 30.505-20.447 47.723-27.59l9.604 28.812 15.657-5.227-9.778-29.333c5.549-1.817 11.19-3.452 16.946-4.823l9.778-2.329v39.085c0 13.659 11.115 24.774 24.774 24.774h8.258v135.606c-38.648 10.95-66.065 46.642-66.065 87.362 0 34.288 19.291 65.437 49.548 80.888v9.951c0 9.109 7.407 16.516 16.516 16.516h49.548c9.109 0 16.516-7.408 16.516-16.516v-9.951c30.258-15.451 49.548-46.6 49.548-80.888 0-40.721-27.425-76.42-66.065-87.37V181.677h8.258c13.659 0 24.774-11.115 24.774-24.774V82.581h16.516v49.548c0 9.109 7.407 16.516 16.516 16.516h16.516c5.871 0 11-3.105 13.931-7.73a217.358 217.358 0 0 1 26.591 17.218l-22.09 26.517 12.693 10.579 22.156-26.591c16.805 14.906 31.059 32.264 42.331 51.497l-26.451 21.157 10.323 12.907 24.105-19.283c9.398 19.406 15.93 40.382 19.175 62.381h-23.668v16.516h42.199l-.966-9.125c-8.197-78.012-54.384-145.258-123.818-181.057zM264.254 412.903h-16.516V165.161h16.516zm-49.548 16.516v36.889c-20.348-13.642-33.032-36.583-33.032-61.663 0-31.711 20.34-59.673 49.548-70.02v78.278c-9.101 0-16.516 7.408-16.516 16.516zm16.516 66.065v-66.065h49.548l.017 66.065zm99.096-90.839c0 25.071-12.684 48.021-33.032 61.663v-36.889c0-9.109-7.407-16.516-16.516-16.516v-78.278c29.217 10.356 49.548 38.309 49.548 70.02zm-33.032-247.742c0 4.558-3.7 8.258-8.258 8.258h-8.258c0-9.109-7.407-16.516-16.516-16.516h-16.516c-9.109 0-16.516 7.407-16.516 16.516h-8.258a8.262 8.262 0 0 1-8.258-8.258V24.774c0-4.558 3.7-8.258 8.258-8.258h66.065c4.558 0 8.258 3.7 8.258 8.258v132.129zm66.065-24.774h-16.516V82.581c0-9.109-7.407-16.516-16.516-16.516h-16.516V49.548h24.774c13.659 0 24.774 11.115 24.774 24.774z" fill="#7ab629" data-original="#000000" class=""></path><path d="M33.028 363.355v49.548c0 9.109 7.407 16.516 16.516 16.516h33.032v-16.516H49.544v-16.516h33.032v-16.516H49.544v-16.516h33.032v-16.516H49.544c-9.1 0-16.516 7.407-16.516 16.516zM429.415 363.355v66.065h16.516v-33.032h33.032v-16.516h-33.032v-16.516h33.032V346.84h-33.032c-9.1-.001-16.516 7.406-16.516 16.515z" fill="#7ab629" data-original="#000000" class=""></path></g></svg>