<svg xmlns="http://www.w3.org/2000/svg" version="1.1" xmlns:xlink="http://www.w3.org/1999/xlink" xmlns:svgjs="http://svgjs.com/svgjs" width="512" height="512" x="0" y="0" viewBox="0 0 60 60" style="enable-background:new 0 0 512 512" xml:space="preserve" class=""><g><path d="M16 26h28a3 3 0 0 0 3-3V11a3 3 0 0 0-3-3H16a3 3 0 0 0-3 3v12a3 3 0 0 0 3 3Zm-1-15a1 1 0 0 1 1-1h28a1 1 0 0 1 1 1v12a1 1 0 0 1-1 1H16a1 1 0 0 1-1-1ZM28 6h4a1 1 0 0 0 0-2h-4a1 1 0 0 0 0 2Z" fill="#7ab629" data-original="#000000"></path><path d="m4.586 9.828 2.121-2.121a1 1 0 0 0-1.414-1.414L3.172 8.414A4.022 4.022 0 0 0 2 11.242V45a7 7 0 0 0 6 6.92V54H7a3 3 0 0 0-3 3v2a1 1 0 0 0 1 1h50a1 1 0 0 0 1-1v-2a3 3 0 0 0-3-3h-1v-2.08A7 7 0 0 0 58 45V11.242a4.022 4.022 0 0 0-1.172-2.828l-2.121-2.121a1 1 0 0 0-1.414 1.414l2.121 2.121A2.011 2.011 0 0 1 56 11.242V13h-3a2.966 2.966 0 0 0-1 .184V7a7.008 7.008 0 0 0-7-7H15a7.008 7.008 0 0 0-7 7v6.184A2.966 2.966 0 0 0 7 13H4v-1.758a2.011 2.011 0 0 1 .586-1.414ZM4 45V25h3a2.966 2.966 0 0 0 1-.184V49.9A5.009 5.009 0 0 1 4 45Zm50 12v1H6v-1a1 1 0 0 1 1-1h46a1 1 0 0 1 1 1Zm-2-7.1V24.816A2.966 2.966 0 0 0 53 25h3v20a5.009 5.009 0 0 1-4 4.9ZM53 15h3v8h-3a1 1 0 0 1-1-1v-6a1 1 0 0 1 1-1ZM10 7a5.006 5.006 0 0 1 5-5h30a5.006 5.006 0 0 1 5 5v43h-6a5.006 5.006 0 0 1-5-5v-1h2a3 3 0 0 0 3-3V31a3 3 0 0 0-3-3h-6a3 3 0 0 0-3 3v10a3 3 0 0 0 3 3h2v1a7.008 7.008 0 0 0 7 7h6v2H10v-2h6a7.008 7.008 0 0 0 7-7v-1h2a3 3 0 0 0 3-3V31a3 3 0 0 0-3-3h-6a3 3 0 0 0-3 3v10a3 3 0 0 0 3 3h2v1a5.006 5.006 0 0 1-5 5h-6V7Zm25 35a1 1 0 0 1-1-1V31a1 1 0 0 1 1-1h6a1 1 0 0 1 1 1v10a1 1 0 0 1-1 1Zm-16 0a1 1 0 0 1-1-1V31a1 1 0 0 1 1-1h6a1 1 0 0 1 1 1v10a1 1 0 0 1-1 1ZM8 16v6a1 1 0 0 1-1 1H4v-8h3a1 1 0 0 1 1 1Z" fill="#7ab629" data-original="#000000"></path></g></svg>