<svg xmlns="http://www.w3.org/2000/svg" version="1.1" xmlns:xlink="http://www.w3.org/1999/xlink" xmlns:svgjs="http://svgjs.com/svgjs" width="512" height="512" x="0" y="0" viewBox="0 0 64 64" style="enable-background:new 0 0 512 512" xml:space="preserve" class=""><g><path d="M13 37.5c-1.93 0-3.5 1.57-3.5 3.5s1.57 3.5 3.5 3.5 3.5-1.57 3.5-3.5-1.57-3.5-3.5-3.5zm0 5c-.827 0-1.5-.673-1.5-1.5s.673-1.5 1.5-1.5 1.5.673 1.5 1.5-.673 1.5-1.5 1.5zM44 19h10a1 1 0 0 0 1-1v-6a1 1 0 0 0-1-1H44a1 1 0 0 0-1 1v6a1 1 0 0 0 1 1zm1-6h8v4h-8zM44 23h10a1 1 0 0 0 0-2H44a1 1 0 0 0 0 2z" fill="#7ab629" data-original="#000000" class=""></path><path d="M64 38.49V27a5.01 5.01 0 0 0-4-4.899V12c0-3.309-2.691-6-6-6H44c-2.967 0-5.431 2.167-5.91 5H26a8.122 8.122 0 0 0-6.951 3.885l-5.682 9.234-8.689 2.005a5.951 5.951 0 0 0-3.357 2.118A5.932 5.932 0 0 0 0 31.999v9c0 .811.317 1.565.874 2.108A2.944 2.944 0 0 0 3 43.999h2.608c1.214 3.012 4.082 5 7.392 5s6.178-1.988 7.392-5H38v5h-2a1 1 0 0 0-1 1v5a1 1 0 0 0 1 1h27a1 1 0 0 0 1-1v-5a1 1 0 0 0-1-1h-2v-5.055a6.434 6.434 0 0 0 3-5.455zm-5.185 1.963c.764-.418 1.185-1.13 1.185-2.003V24.184c1.161.414 2 1.514 2 2.816v11.49a4.461 4.461 0 0 1-2.471 4.007c-1.296.692-2.993.653-4.314-.111l-1.762-1.028 1.078-1.725 1.55.968c.525.336 1.833.345 2.734-.148zm-20.177-8.837L34.277 29H32v-2h3.749l4.225 2.274zM40 33.265l1.736-3.043 5.025 2.705A2.366 2.366 0 0 1 48.001 35c0 .345.177.665.47.848l4.365 2.726-1.11 1.776-7.221-4.214a1.003 1.003 0 0 0-1.398.415l-1.396 2.785-1.71-.931v-5.14zm4.417 5.135 6.085 3.551a3.122 3.122 0 0 1-3.437.307l-3.597-1.964.95-1.894zM19.481 18H27v3c0 1.654-1.346 3-3 3h-8.21zm-.728 24.711v.003c-.763 2.563-3.074 4.285-5.751 4.285S8.013 45.277 7.25 42.71a6.006 6.006 0 0 1 5.752-7.711 6.006 6.006 0 0 1 5.752 7.711zm39.248-4.261c-.234.565-.759.464-.97.387l-7.069-4.416a4.376 4.376 0 0 0-2.247-3.252L36.253 25h-5.252a1 1 0 0 0-1 1v4a1 1 0 0 0 1 1h2.723l4.277 2.566V42H20.928c.041-.33.072-.662.072-1 0-4.411-3.589-8-8-8s-8 3.589-8 8c0 .338.031.67.072 1H3a.974.974 0 0 1-.712-.306A.96.96 0 0 1 2 41v-8h3a1 1 0 0 0 0-2H2.139c.14-.545.383-1.059.749-1.514a3.952 3.952 0 0 1 2.237-1.411L14.115 26H24a5 5 0 0 0 5-5v-4a1 1 0 0 0-1-1h-7.289l.039-.064A6.138 6.138 0 0 1 26 13h12v10a1 1 0 0 0 2 0V12a4 4 0 0 1 4-4h10a4 4 0 0 1 4 4v26.45zm4 15.55h-25v-3h25zm-22-5v-8.317l6.106 3.331a5.103 5.103 0 0 0 2.448.625 5.131 5.131 0 0 0 3.748-1.637l1.908 1.113a6.579 6.579 0 0 0 3.28.884c.512 0 1.02-.063 1.51-.181v4.181h-19z" fill="#7ab629" data-original="#000000" class=""></path><path d="M51 25h-4a1 1 0 0 0 0 2h4a1 1 0 0 0 0-2z" fill="#7ab629" data-original="#000000" class=""></path></g></svg>