<svg xmlns="http://www.w3.org/2000/svg" version="1.1" xmlns:xlink="http://www.w3.org/1999/xlink" xmlns:svgjs="http://svgjs.com/svgjs" width="512" height="512" x="0" y="0" viewBox="0 0 512 512" style="enable-background:new 0 0 512 512" xml:space="preserve" class=""><g><path d="M420.036 480.545c-14.379 10.762-31.503 16.451-49.52 16.451h-224.54c-45.617 0-82.73-37.113-82.73-82.73s37.112-82.73 82.73-82.73h47.346a7.502 7.502 0 0 0 0-15.004h-47.346c-53.891 0-97.734 43.843-97.734 97.734S92.085 512 145.976 512h224.541c21.284 0 41.516-6.723 58.51-19.443a7.502 7.502 0 0 0-8.991-12.012z" fill="#7ab629" data-original="#000000" class=""></path><path d="M370.517 316.532h-82.035c-2.418-15.762-16.07-27.873-32.498-27.873-18.129 0-32.878 14.749-32.878 32.878s14.749 32.877 32.878 32.877c14.644 0 27.077-9.625 31.318-22.879h83.214c45.617 0 82.73 37.113 82.73 82.73 0 15.257-4.185 30.163-12.102 43.105a7.501 7.501 0 1 0 12.799 7.829c9.359-15.3 14.306-32.913 14.306-50.934.002-53.89-43.842-97.733-97.732-97.733zm-114.533 22.879c-9.856 0-17.874-8.018-17.874-17.874s8.018-17.874 17.874-17.874 17.874 8.018 17.874 17.874-8.018 17.874-17.874 17.874zM375.711 218.749c4.479 7.58 12.735 12.288 21.545 12.288a24.99 24.99 0 0 0 12.704-3.48c5.75-3.398 9.834-8.832 11.497-15.301 1.664-6.469.708-13.199-2.69-18.949-16.42-27.786-39.83-51.067-67.701-67.325-28.752-16.773-61.632-25.639-95.084-25.639s-66.331 8.866-95.084 25.638c-27.87 16.258-51.281 39.539-67.701 67.325-3.398 5.75-4.353 12.48-2.69 18.949 1.664 6.469 5.747 11.903 11.497 15.3 11.473 7.087 27.638 2.901 34.251-8.807 24.929-42.186 70.805-68.393 119.726-68.393s94.801 26.207 119.73 68.394zm-252.37-7.633c-2.639 4.686-9.127 6.355-13.7 3.523-2.3-1.359-3.934-3.533-4.599-6.121s-.283-5.279 1.076-7.579c15.121-25.588 36.679-47.026 62.344-61.999 26.46-15.436 56.725-23.594 87.523-23.594s61.063 8.159 87.523 23.595c25.665 14.972 47.223 36.41 62.344 61.999 4.032 6.326-1.114 15.323-8.595 15.093-3.583 0-6.809-1.838-8.628-4.917-27.616-46.733-78.442-75.764-132.644-75.764s-105.029 29.031-132.644 75.764z" fill="#7ab629" data-original="#000000" class=""></path><path d="M498.486 131.504C444.8 49.16 354.145 0 255.984 0c-36.744 0-72.589 6.805-106.539 20.226a7.5 7.5 0 0 0-4.218 9.734 7.5 7.5 0 0 0 9.734 4.218c32.186-12.724 66.175-19.175 101.023-19.175 93.07 0 179.027 46.615 229.934 124.695a9.94 9.94 0 0 1 1.409 7.524c-1.478 8.514-13.711 10.805-18.167 3.401C421.96 78.23 342.268 35.009 255.984 35.009S90.008 78.23 42.808 150.626c-2.852 4.563-9.379 5.944-13.841 2.915a9.94 9.94 0 0 1-4.325-6.317 9.939 9.939 0 0 1 1.41-7.525c24.964-38.29 59.225-69.962 99.08-91.591a7.503 7.503 0 0 0-7.157-13.187C75.936 57.736 39.803 91.134 13.482 131.505c-7.575 11.107-4.122 27.496 7.289 34.604a24.92 24.92 0 0 0 13.641 4.062 24.94 24.94 0 0 0 20.964-11.351C99.797 90.688 174.791 50.013 255.984 50.013s156.187 40.675 200.608 108.806c7.122 11.404 23.449 14.875 34.604 7.29 5.596-3.648 9.436-9.256 10.813-15.793s.126-13.217-3.523-18.812zM294.707 276.014c4.616 7.248 12.507 11.576 21.109 11.576 4.753 0 9.392-1.354 13.415-3.916 11.63-7.406 15.067-22.894 7.66-34.524-17.72-27.828-47.966-44.442-80.907-44.442s-63.187 16.614-80.907 44.442c-7.407 11.63-3.97 27.118 7.66 34.524a24.86 24.86 0 0 0 18.849 3.321c6.521-1.447 12.088-5.347 15.675-10.981 8.491-13.333 22.967-21.293 38.723-21.293s30.232 7.959 38.723 21.293zm-90.101-8.058a9.93 9.93 0 0 1-6.269 4.391 9.933 9.933 0 0 1-7.541-1.328c-4.652-2.962-6.026-9.158-3.063-13.81 14.952-23.479 40.466-37.497 68.252-37.497s53.3 14.018 68.252 37.497c2.963 4.653 1.588 10.848-3.063 13.81-4.499 2.979-11.006 1.536-13.81-3.064-11.26-17.682-30.467-28.238-51.378-28.238s-40.12 10.556-51.38 28.239zM160.746 390.939a7.502 7.502 0 0 0 0-15.004H133.89a7.502 7.502 0 0 0-7.502 7.502V449.7a7.502 7.502 0 0 0 15.004 0v-26.257h17.221a7.502 7.502 0 0 0 0-15.004h-17.221v-17.5zM310.925 390.372a7.502 7.502 0 0 0 0-15.004h-27.869a7.502 7.502 0 0 0-7.502 7.502v66.143a7.502 7.502 0 0 0 7.502 7.502h27.869a7.502 7.502 0 0 0 0-15.004h-20.367v-18.068h18.313a7.502 7.502 0 0 0 0-15.004h-18.313v-18.068h20.367zM383.556 390.372a7.502 7.502 0 0 0 0-15.004h-27.87a7.502 7.502 0 0 0-7.502 7.502v66.143a7.502 7.502 0 0 0 7.502 7.502h27.87a7.502 7.502 0 0 0 0-15.004h-20.368v-18.068h18.313a7.502 7.502 0 0 0 0-15.004h-18.313v-18.068h20.368zM246.585 400.499c0-13.702-11.588-24.85-25.832-24.85h-17.738l-.011.001-.011-.001a7.502 7.502 0 0 0-7.502 7.502v66.752a7.502 7.502 0 0 0 15.004 0v-21.127l22.956 26.083a7.483 7.483 0 0 0 5.634 2.546 7.503 7.503 0 0 0 5.628-12.459l-17.868-20.302c11.313-2.642 19.74-12.462 19.74-24.145zm-25.832 9.846c-2.356 0-6.483.018-10.156.036-.019-3.594-.046-15.965-.058-19.728h10.214c5.869 0 10.828 4.509 10.828 9.846s-4.959 9.846-10.828 9.846z" fill="#7ab629" data-original="#000000" class=""></path></g></svg>